HIERARCHY
ROOT Hips
{
    OFFSET 0.000000 0.000000 0.000000
    CHANNELS 6 Xposition Yposition Zposition Zrotation Xrotation Yrotation
    JOINT Spine
    {
        OFFSET -0.000000 14.517291 0.000000
        CHANNELS 3 Zrotation Xrotation Yrotation
        JOINT Spine1
        {
            OFFSET -0.000000 37.558300 0.000000
            CHANNELS 3 Zrotation Xrotation Yrotation
            JOINT Neck
            {
                OFFSET -0.000000 37.404057 3.400369
                CHANNELS 3 Zrotation Xrotation Yrotation
                JOINT Head
                {
                    OFFSET -0.000000 24.785618 -3.540803
                    CHANNELS 3 Zrotation Xrotation Yrotation
                    End Site
                    {
                        OFFSET -0.000000 35.408028 0.000000
                    }
                }
            }
            JOINT LeftShoulder
            {
                OFFSET 6.992933 33.973492 -0.192664
                CHANNELS 3 Zrotation Xrotation Yrotation
                JOINT LeftArm
                {
                    OFFSET 21.527611 0.000000 0.000000
                    CHANNELS 3 Zrotation Xrotation Yrotation
                    JOINT LeftForeArm
                    {
                        OFFSET 56.353916 0.000000 0.000000
                        CHANNELS 3 Zrotation Xrotation Yrotation
                        JOINT LeftHand
                        {
                            OFFSET 47.774071 0.000000 0.000000
                            CHANNELS 3 Zrotation Xrotation Yrotation
                            End Site
                            {
                                OFFSET 26.556021 0.000000 0.000000
                            }
                        }
                    }
                }
            }
            JOINT RightShoulder
            {
                OFFSET -7.065357 33.973492 -0.192664
                CHANNELS 3 Zrotation Xrotation Yrotation
                JOINT RightArm
                {
                    OFFSET -21.527611 0.000000 0.000000
                    CHANNELS 3 Zrotation Xrotation Yrotation
                    JOINT RightForeArm
                    {
                        OFFSET -56.353916 0.000000 0.000000
                        CHANNELS 3 Zrotation Xrotation Yrotation
                        JOINT RightHand
                        {
                            OFFSET -47.774071 0.000000 0.000000
                            CHANNELS 3 Zrotation Xrotation Yrotation
                            End Site
                            {
                                OFFSET -26.556021 0.000000 0.000000
                            }
                        }
                    }
                }
            }
        }
    }
    JOINT LeftUpLeg
    {
        OFFSET 17.704014 0.000000 0.000000
        CHANNELS 3 Zrotation Xrotation Yrotation
        JOINT LeftLeg
        {
            OFFSET -0.000000 -81.181816 0.000000
            CHANNELS 3 Zrotation Xrotation Yrotation
            JOINT LeftFoot
            {
                OFFSET -0.000000 -62.821102 0.000000
                CHANNELS 3 Zrotation Xrotation Yrotation
                JOINT LeftToeBase
                {
                    OFFSET -0.000000 -11.507608 26.556021
                    CHANNELS 3 Zrotation Xrotation Yrotation
                    End Site
                    {
                        OFFSET -0.000000 0.000000 7.081605
                    }
                }
            }
        }
    }
    JOINT RightUpLeg
    {
        OFFSET -17.704014 0.000000 0.000000
        CHANNELS 3 Zrotation Xrotation Yrotation
        JOINT RightLeg
        {
            OFFSET -0.000000 -81.181816 0.000000
            CHANNELS 3 Zrotation Xrotation Yrotation
            JOINT RightFoot
            {
                OFFSET -0.000000 -62.821102 0.000000
                CHANNELS 3 Zrotation Xrotation Yrotation
                JOINT RightToeBase
                {
                    OFFSET -0.000000 -11.507608 26.556021
                    CHANNELS 3 Zrotation Xrotation Yrotation
                    End Site
                    {
                        OFFSET -0.000000 0.000000 7.081605
                    }
                }
            }
        }
    }
}
MOTION
Frames:    9
Frame Time:    0.008333
-6.297942    149.950806    -130.282227    -22.483921    -6.818069    28.053997    -4.042567    5.479530    -0.978046    -11.552576    -0.274506    -0.412755    3.493291    -3.565911    -18.733311    19.507900    3.537131    -18.067450    6.347460    8.527984    -19.299173    -33.000721    23.173210    -46.849602    -6.762321    -12.190358    -116.032745    4.983568    -22.706297    -3.851496    -13.795631    -4.945201    -6.132756    19.716930    -19.247738    54.487297    -22.738928    -20.238155    39.788158    1.858169    -11.705200    31.945074    39.878761    -20.766973    4.208588    -25.360044    58.300217    -7.077334    11.703816    -36.037258    47.821217    0.000000    0.000000    0.000000    8.928843    -32.896832    -7.567533    12.043182    16.064402    -16.401999    -1.845121    20.192730    -7.886743    0.000000    0.000000    0.000000    
-6.273831    149.957153    -130.307114    -22.454710    -6.810952    28.055868    -4.061425    5.471052    -0.957357    -11.508701    -0.278689    -0.406317    3.510605    -3.578030    -18.743279    19.523922    3.551300    -18.082212    6.343937    8.537124    -19.266090    -32.994812    23.162498    -46.825382    -6.767656    -12.139176    -116.038467    4.966882    -22.668837    -3.909683    -13.771029    -4.915234    -6.130417    19.733025    -19.245445    54.455425    -22.701530    -20.240620    39.798630    1.902700    -11.706736    31.946478    39.841991    -20.750198    4.239819    -25.326780    58.281887    -7.107555    11.707878    -36.033672    47.795483    0.000000    0.000000    0.000000    8.888092    -32.884315    -7.631488    12.025582    16.058928    -16.349409    -1.847816    20.216978    -7.880701    0.000000    0.000000    0.000000    
-6.247051    149.966339    -130.331818    -22.423521    -6.804394    28.064306    -4.061113    5.458728    -0.944554    -11.488543    -0.274916    -0.401569    3.525918    -3.588811    -18.752527    19.541780    3.582148    -18.098515    6.347125    8.550051    -19.229437    -32.974846    23.157787    -46.799885    -6.774055    -12.100179    -116.052597    4.985282    -22.645527    -3.923472    -13.735516    -4.891827    -6.133571    19.769249    -19.251772    54.453125    -22.668148    -20.221512    39.797874    1.935518    -11.690697    31.912003    39.799213    -20.739756    4.260719    -25.298445    58.267181    -7.128314    11.722997    -35.996727    47.773132    0.000000    0.000000    0.000000    8.839409    -32.865597    -7.692797    12.012851    16.045319    -16.305105    -1.816928    20.229322    -7.895096    0.000000    0.000000    0.000000    
-6.213668    149.974686    -130.355515    -22.384506    -6.795370    28.067837    -4.059709    5.441616    -0.922176    -11.470895    -0.265569    -0.392839    3.530870    -3.585469    -18.758623    19.561611    3.586914    -18.104458    6.349703    8.541232    -19.202715    -32.966133    23.180120    -46.759304    -6.753474    -12.088375    -116.059410    4.989029    -22.605543    -3.933337    -13.707154    -4.869728    -6.131066    19.760620    -19.210415    54.419430    -22.701300    -20.225218    39.748039    1.931281    -11.693963    31.951485    39.746315    -20.717476    4.291159    -25.253027    58.249870    -7.204017    11.759989    -35.970341    47.785019    0.000000    0.000000    0.000000    8.786162    -32.845463    -7.754740    12.002054    16.034683    -16.288488    -1.841785    20.233574    -7.854665    0.000000    0.000000    0.000000    
-6.169425    149.988037    -130.374725    -22.331800    -6.793117    28.082117    -4.059437    5.426831    -0.900328    -11.452546    -0.239633    -0.382694    3.531014    -3.588797    -18.766279    19.590681    3.582658    -18.108845    6.340729    8.532061    -19.192186    -32.975834    23.166563    -46.693081    -6.768101    -12.027948    -116.059975    4.973070    -22.570826    -3.954622    -13.667022    -4.860935    -6.141138    19.714951    -19.125444    54.386997    -22.757521    -20.309120    39.678936    1.974389    -11.764036    31.951780    39.674347    -20.689087    4.287426    -25.224146    58.223709    -7.264559    11.785248    -35.950802    47.794315    0.000000    0.000000    0.000000    8.712509    -32.807014    -7.829168    11.992733    16.018103    -16.260330    -1.856034    20.242870    -7.822079    0.000000    0.000000    0.000000    
-6.125937    150.000137    -130.399765    -22.275211    -6.775848    28.095282    -4.053905    5.403914    -0.878545    -11.442341    -0.226890    -0.373856    3.519756    -3.573896    -18.772781    19.608040    3.581764    -18.111176    6.323899    8.542348    -19.185076    -32.974808    23.135214    -46.626640    -6.786976    -11.968512    -116.057961    4.950698    -22.541273    -3.937525    -13.647634    -4.834414    -6.138182    19.726492    -19.098846    54.367191    -22.785994    -20.330524    39.637730    1.974076    -11.785293    31.942991    39.591106    -20.672134    4.272402    -25.236153    58.186554    -7.265074    11.794985    -35.924328    47.811829    0.000000    0.000000    0.000000    8.629502    -32.782791    -7.898189    11.982128    16.005617    -16.249638    -1.863960    20.240953    -7.782540    0.000000    0.000000    0.000000    
-6.079461    150.014908    -130.423965    -22.220631    -6.746610    28.105951    -4.049734    5.364651    -0.847996    -11.420967    -0.214720    -0.361951    3.477010    -3.524083    -18.801697    19.662472    3.558367    -18.122480    6.237635    8.374754    -19.355545    -33.149986    23.104540    -46.223194    -6.874942    -11.741619    -116.137169    5.045778    -22.475327    -3.876864    -13.667707    -4.818180    -6.137272    19.805826    -19.105623    54.346989    -22.762033    -20.304155    39.635731    1.950174    -11.773637    31.955265    39.508438    -20.658138    4.260651    -25.242476    58.146980    -7.317920    11.834986    -35.884750    47.856911    0.000000    0.000000    0.000000    8.544831    -32.766773    -7.951426    11.973486    15.984302    -16.231421    -1.858650    20.249311    -7.755259    0.000000    0.000000    0.000000    
-6.039256    150.035217    -130.452438    -22.167175    -6.712782    28.115484    -4.043315    5.330279    -0.817932    -11.403709    -0.210886    -0.350997    3.495510    -3.498390    -18.803799    19.634874    3.524007    -18.124331    6.232141    8.357647    -19.372631    -33.184334    23.103945    -46.102791    -6.936561    -11.661267    -116.124931    5.089833    -22.499269    -4.077456    -13.642514    -4.774191    -6.145366    19.827627    -19.120447    54.349342    -22.763683    -20.301643    39.588680    1.980575    -11.772375    31.961988    39.430325    -20.649815    4.236382    -25.285160    58.094379    -7.305355    11.835388    -35.852459    47.875896    0.000000    0.000000    0.000000    8.466170    -32.764366    -7.983747    11.961177    15.971816    -16.234898    -1.850650    20.270216    -7.733543    0.000000    0.000000    0.000000    
-5.992074    150.054169    -130.475586    -22.108644    -6.675763    28.131695    -4.028880    5.288556    -0.793342    -11.387408    -0.202931    -0.341322    3.481407    -3.467493    -18.813404    19.633469    3.482983    -18.123993    6.216847    8.353473    -19.357307    -33.204720    23.099020    -46.046211    -6.969875    -11.594283    -116.100555    5.118587    -22.481033    -4.052032    -13.632462    -4.724608    -6.149113    19.824060    -19.098816    54.336376    -22.802320    -20.363642    39.543312    2.025793    -11.820516    31.950268    39.345016    -20.640141    4.231112    -25.288706    58.045395    -7.328758    11.842047    -35.817539    47.873734    0.000000    0.000000    0.000000    8.371589    -32.760586    -8.016032    11.957776    15.957286    -16.256948    -1.848928    20.277290    -7.697033    0.000000    0.000000    0.000000    
